<?xml version="1.0" encoding="utf-8"?>
<!-- Generator: Adobe Illustrator 20.0.0, SVG Export Plug-In . SVG Version: 6.00 Build 0)  -->
<svg version="1.1" id="Layer_1" xmlns="http://www.w3.org/2000/svg" xmlns:xlink="http://www.w3.org/1999/xlink" x="0px" y="0px"
	 viewBox="0 0 1242 640.2" style="enable-background:new 0 0 1242 640.2;" xml:space="preserve">
<style type="text/css">
	.st0{fill:url(#SVGID_1_);}
</style>
<linearGradient id="SVGID_1_" gradientUnits="userSpaceOnUse" x1="184.5614" y1="804.8826" x2="1057.5403" y2="-164.6586">
	<stop  offset="0" style="stop-color:#5FBB46"/>
	<stop  offset="1" style="stop-color:#71C27F"/>
</linearGradient>
<path class="st0" d="M4.2,0.1C0.9-0.2,0,0.5,0,4c0.2,27.7,0.2,583,0,632c0,3.4,0.7,4.1,4.1,4.1c54.3-0.1,527.9-0.1,558.9-0.1
	c7.7,0,15.3,0,23,0c7.4-1.4,13.6-4.6,18.9-10c10.1-10.2,19.1-10.5,29.4-0.7c6,5.7,12.5,9.6,20.7,10.7c1.7,0,3.3,0,5,0
	c20.7,0,567.9-0.1,578.4,0.1c3,0.1,3.6-0.6,3.6-3.6c-0.1-28.8-0.1-585.3,0-632.7c0-3.1-0.7-3.8-3.8-3.8"/>
</svg>
